<?xml version="1.0" encoding="UTF-8"?>
<svg id="flag-icons-cn" xmlns="http://www.w3.org/2000/svg" version="1.1" xmlns:xlink="http://www.w3.org/1999/xlink" viewBox="0 0 512 512">
  <!-- Generator: Adobe Illustrator 29.2.1, SVG Export Plug-In . SVG Version: 2.1.0 Build 116)  -->
  <defs>
    <style>
      .st0 {
        fill: #ee1c25;
      }

      .st1 {
        fill: #ff0;
      }
    </style>
  </defs>
  <path class="st0" d="M-41.5-21h640v480H-41.5V-21Z"/>
  <path class="st0" d="M-11,32h640v480H-11V32Z"/>
  <path id="cn-a" class="st1" d="M76.8,193.6l43.2-129.6,43.2,129.6L48,114.4h144l-115.2,79.2Z"/>
  <path id="cn-a1" class="st1" d="M264.2,66.5l-44.5,9.9,29.7-34.6-2.9,46.5-24.7-41.2,42.4,19.4Z"/>
  <path id="cn-a2" class="st1" d="M309,123.3l-44.8-8.2,40.7-20.4-20.7,41.7-6.8-47.5,31.6,34.3h0Z"/>
  <path id="cn-a3" class="st1" d="M302.5,203.1l-37.6-25.7,45.5-2-35.9,29.7,13.2-46.1,14.8,44.2h0Z"/>
  <path id="cn-a4" class="st1" d="M246,255.2l-24.7-38.2,42.7,15.8-44.6,13.5,30-37.5-3.4,46.5h0Z"/>
</svg>